<svg width="36" height="36" viewBox="0 0 36 36" fill="none" xmlns="http://www.w3.org/2000/svg">
<circle cx="18" cy="18" r="18" fill="white"/>
<path d="M18 27.35L16.55 26.03C11.4 21.36 8 18.27 8 14.5C8 11.41 10.42 9 13.5 9C15.24 9 16.91 9.81 18 11.08C19.09 9.81 20.76 9 22.5 9C25.58 9 28 11.41 28 14.5C28 18.27 24.6 21.36 19.45 26.03L18 27.35Z" fill="#FF5111"/>
<path d="M18 24.1229L16.9125 23.1879C13.05 19.88 10.5 17.6913 10.5 15.0208C10.5 12.8321 12.315 11.125 14.625 11.125C15.93 11.125 17.1825 11.6987 18 12.5983C18.8175 11.6987 20.07 11.125 21.375 11.125C23.685 11.125 25.5 12.8321 25.5 15.0208C25.5 17.6913 22.95 19.88 19.0875 23.1879L18 24.1229Z" fill="white"/>
</svg>
