<svg width="36" height="36" viewBox="0 0 36 36" fill="none" xmlns="http://www.w3.org/2000/svg">
<circle cx="18" cy="18" r="18" fill="white"/>
<path d="M23 28C22.1667 28 21.4583 27.7083 20.875 27.125C20.2917 26.5417 20 25.8333 20 25C20 24.9 20.025 24.6667 20.075 24.3L13.05 20.2C12.7833 20.45 12.475 20.646 12.125 20.788C11.775 20.93 11.4 21.0007 11 21C10.1667 21 9.45833 20.7083 8.875 20.125C8.29167 19.5417 8 18.8333 8 18C8 17.1667 8.29167 16.4583 8.875 15.875C9.45833 15.2917 10.1667 15 11 15C11.4 15 11.775 15.071 12.125 15.213C12.475 15.355 12.7833 15.5507 13.05 15.8L20.075 11.7C20.0417 11.5833 20.021 11.471 20.013 11.363C20.005 11.255 20.0007 11.134 20 11C20 10.1667 20.2917 9.45833 20.875 8.875C21.4583 8.29167 22.1667 8 23 8C23.8333 8 24.5417 8.29167 25.125 8.875C25.7083 9.45833 26 10.1667 26 11C26 11.8333 25.7083 12.5417 25.125 13.125C24.5417 13.7083 23.8333 14 23 14C22.6 14 22.225 13.929 21.875 13.787C21.525 13.645 21.2167 13.4493 20.95 13.2L13.925 17.3C13.9583 17.4167 13.9793 17.5293 13.988 17.638C13.9967 17.7467 14.0007 17.8673 14 18C13.9993 18.1327 13.9953 18.2537 13.988 18.363C13.9807 18.4723 13.9597 18.5847 13.925 18.7L20.95 22.8C21.2167 22.55 21.525 22.3543 21.875 22.213C22.225 22.0717 22.6 22.0007 23 22C23.8333 22 24.5417 22.2917 25.125 22.875C25.7083 23.4583 26 24.1667 26 25C26 25.8333 25.7083 26.5417 25.125 27.125C24.5417 27.7083 23.8333 28 23 28ZM23 26C23.2833 26 23.521 25.9043 23.713 25.713C23.905 25.5217 24.0007 25.284 24 25C23.9993 24.716 23.9033 24.4787 23.712 24.288C23.5207 24.0973 23.2833 24.0013 23 24C22.7167 23.9987 22.4793 24.0947 22.288 24.288C22.0967 24.4813 22.0007 24.7187 22 25C21.9993 25.2813 22.0953 25.519 22.288 25.713C22.4807 25.907 22.718 26.0027 23 26ZM11 19C11.2833 19 11.521 18.904 11.713 18.712C11.905 18.52 12.0007 18.2827 12 18C11.9993 17.7173 11.9033 17.48 11.712 17.288C11.5207 17.096 11.2833 17 11 17C10.7167 17 10.4793 17.096 10.288 17.288C10.0967 17.48 10.0007 17.7173 10 18C9.99933 18.2827 10.0953 18.5203 10.288 18.713C10.4807 18.9057 10.718 19.0013 11 19ZM23 12C23.2833 12 23.521 11.904 23.713 11.712C23.905 11.52 24.0007 11.2827 24 11C23.9993 10.7173 23.9033 10.48 23.712 10.288C23.5207 10.096 23.2833 10 23 10C22.7167 10 22.4793 10.096 22.288 10.288C22.0967 10.48 22.0007 10.7173 22 11C21.9993 11.2827 22.0953 11.5203 22.288 11.713C22.4807 11.9057 22.718 12.0013 23 12Z" fill="#FF5313"/>
</svg>
