<svg width="24" height="24" viewBox="0 0 24 24" fill="none" xmlns="http://www.w3.org/2000/svg">
<path d="M12 21.35L10.55 20.03C5.4 15.36 2 12.27 2 8.5C2 5.41 4.42 3 7.5 3C9.24 3 10.91 3.81 12 5.08C13.09 3.81 14.76 3 16.5 3C19.58 3 22 5.41 22 8.5C22 12.27 18.6 15.36 13.45 20.03L12 21.35Z" fill="#FF5111"/>
<path d="M12 18.1229L10.9125 17.1879C7.05 13.88 4.5 11.6913 4.5 9.02083C4.5 6.83208 6.315 5.125 8.625 5.125C9.93 5.125 11.1825 5.69875 12 6.59833C12.8175 5.69875 14.07 5.125 15.375 5.125C17.685 5.125 19.5 6.83208 19.5 9.02083C19.5 11.6913 16.95 13.88 13.0875 17.1879L12 18.1229Z" fill="white"/>
<path d="M12 7L10.2679 5.5H13.7321L12 7Z" fill="#FF5111"/>
<path d="M11.3992 5.5449C11.3085 5.4485 11.1519 5.42613 11.0773 5.3068C11.0239 5.22132 10.8918 5.15085 10.8139 5.08854C10.743 5.03182 10.6402 4.96821 10.5857 4.90005C10.5091 4.80435 10.3416 4.77893 10.2881 4.67188" stroke="#FF5111" stroke-linecap="round"/>
<path d="M11.777 5.52791C11.6605 5.34978 11.4772 5.2319 11.3107 5.10242C11.2483 5.0539 11.1221 5.05049 11.0472 5.02746C10.9931 5.0108 10.9169 4.99219 10.8643 4.99219" stroke="#FF5111" stroke-linecap="round"/>
<path d="M11.3009 5.44943C11.2433 5.44367 11.1768 5.3799 11.1267 5.35022C11.0804 5.32278 11.0298 5.29098 10.9834 5.26645C10.9147 5.23005 10.8201 5.13707 10.7806 5.07244C10.7616 5.0414 10.716 5.00542 10.6902 4.97764C10.6382 4.92164 10.6107 4.8328 10.5469 4.79025C10.4609 4.73291 10.331 4.69255 10.2338 4.66018C10.1537 4.63345 10.2594 4.75087 10.2735 4.77482C10.3101 4.83707 10.3756 4.86504 10.4367 4.89387C10.7097 5.02281 10.9465 5.20183 11.1664 5.41416C11.1926 5.43942 11.2699 5.51637 11.2436 5.49132C11.1629 5.41466 11.0919 5.34677 10.9922 5.29511C10.8627 5.22792 10.77 5.11634 10.6461 5.04819C10.5622 5.00205 10.4952 4.89528 10.4036 4.86962C10.3335 4.84999 10.4466 4.99185 10.4543 4.99969C10.4982 5.04468 10.5421 5.09236 10.591 5.13197C10.6548 5.18365 10.7209 5.22681 10.7894 5.27086C10.898 5.34064 11.0376 5.45801 11.162 5.48911" stroke="#FF5111" stroke-linecap="round"/>
<path d="M13.0664 5.24963C13.1699 5.18752 13.2688 5.09735 13.364 5.02256C13.3928 4.99993 13.471 4.94427 13.4037 5.01153C13.3608 5.05442 13.3275 5.10541 13.2847 5.14822C13.2588 5.17412 13.1951 5.20135 13.1866 5.23971C13.1796 5.27121 13.4016 5.14019 13.4401 5.12287C13.6659 5.02125 13.8807 4.85253 14.118 4.77344" stroke="#FF5111" stroke-linecap="round"/>
</svg>
