<svg width="32" height="32" viewBox="0 0 32 32" fill="none" xmlns="http://www.w3.org/2000/svg">
<path d="M16 10C12.6867 10 10 12.7507 10 16.144C10 18.8586 11.7192 21.1617 14.1032 21.9741C14.4031 22.031 14.5132 21.8408 14.5132 21.6785C14.5132 21.532 14.5075 21.0481 14.505 20.5347C12.8358 20.9063 12.4836 19.8098 12.4836 19.8098C12.2106 19.0996 11.8173 18.9107 11.8173 18.9107C11.273 18.5294 11.8584 18.5373 11.8584 18.5373C12.4609 18.5806 12.7781 19.1704 12.7781 19.1704C13.3133 20.1097 14.1818 19.8381 14.5242 19.6811C14.578 19.2841 14.7335 19.013 14.9051 18.8596C13.5724 18.7042 12.1715 18.1774 12.1715 15.8232C12.1715 15.1524 12.4059 14.6043 12.7897 14.174C12.7274 14.0192 12.522 13.3944 12.8478 12.548C12.8478 12.548 13.3517 12.3829 14.4983 13.1778C14.9769 13.0417 15.4901 12.9735 16 12.9711C16.51 12.9735 17.0237 13.0417 17.5031 13.1778C18.6483 12.383 19.1515 12.5481 19.1515 12.5481C19.4781 13.3943 19.2726 14.0193 19.2103 14.174C19.595 14.6043 19.8278 15.1524 19.8278 15.8232C19.8278 18.183 18.4242 18.7026 17.0881 18.8547C17.3033 19.0454 17.4951 19.4193 17.4951 19.9925C17.4951 20.8145 17.4881 21.4762 17.4881 21.6785C17.4881 21.8421 17.5961 22.0336 17.9003 21.9733C20.283 21.16 22 18.8578 22 16.1441C22 12.7507 19.3136 10 16 10ZM12.2472 18.7523C12.234 18.7828 12.1871 18.792 12.1444 18.771C12.1008 18.751 12.0764 18.7094 12.0905 18.6788C12.1034 18.6473 12.1504 18.6386 12.1938 18.6596C12.2374 18.6797 12.2623 18.7217 12.2472 18.7523ZM12.5424 19.022C12.5138 19.0492 12.4578 19.0365 12.4198 18.9936C12.3806 18.9508 12.3732 18.8935 12.4023 18.8659C12.4318 18.8388 12.486 18.8515 12.5253 18.8943C12.5646 18.9376 12.5722 18.9945 12.5424 19.022ZM12.7449 19.367C12.7081 19.3932 12.648 19.3686 12.6108 19.314C12.574 19.2594 12.574 19.1939 12.6116 19.1676C12.6489 19.1414 12.7081 19.165 12.7457 19.2192C12.7824 19.2748 12.7824 19.3403 12.7448 19.3671M13.0872 19.7667C13.0543 19.8038 12.9843 19.7938 12.933 19.7431C12.8805 19.6936 12.8659 19.6233 12.8989 19.5862C12.9322 19.5489 13.0027 19.5594 13.0543 19.6097C13.1064 19.6591 13.1223 19.7299 13.0872 19.7667ZM13.5298 19.9015C13.5153 19.9497 13.4477 19.9716 13.3798 19.9511C13.312 19.93 13.2676 19.8737 13.2812 19.8251C13.2954 19.7766 13.3631 19.7538 13.4316 19.7757C13.4994 19.7967 13.5439 19.8526 13.5298 19.9016M14.0334 19.9588C14.0351 20.0095 13.9775 20.0515 13.9061 20.0524C13.8344 20.0541 13.7763 20.0131 13.7755 19.9632C13.7755 19.912 13.8319 19.8704 13.9037 19.8692C13.975 19.8677 14.0334 19.9084 14.0334 19.9588ZM14.5282 19.9394C14.5367 19.9888 14.4872 20.0396 14.4163 20.0532C14.3467 20.0662 14.2822 20.0356 14.2733 19.9866C14.2647 19.936 14.3152 19.8852 14.3847 19.8721C14.4557 19.8594 14.5191 19.8892 14.5282 19.9394Z" fill="#161614"/>
<path d="M15.9998 29.3307C14.1554 29.3307 12.4221 28.9805 10.7998 28.2801C9.17762 27.5796 7.76651 26.6298 6.56651 25.4307C5.36651 24.2316 4.41673 22.8205 3.71717 21.1974C3.01762 19.5743 2.66739 17.841 2.66651 15.9974C2.66562 14.1538 3.01584 12.4205 3.71717 10.7974C4.41851 9.17428 5.36828 7.76317 6.56651 6.56406C7.76473 5.36495 9.17584 4.41517 10.7998 3.71473C12.4238 3.01428 14.1572 2.66406 15.9998 2.66406C17.8425 2.66406 19.5758 3.01428 21.1998 3.71473C22.8238 4.41517 24.235 5.36495 25.4332 6.56406C26.6314 7.76317 27.5816 9.17428 28.2838 10.7974C28.9861 12.4205 29.3358 14.1538 29.3332 15.9974C29.3305 17.841 28.9803 19.5743 28.2825 21.1974C27.5847 22.8205 26.635 24.2316 25.4332 25.4307C24.2314 26.6298 22.8203 27.5801 21.1998 28.2814C19.5794 28.9827 17.8461 29.3325 15.9998 29.3307Z" fill="#6D6D6D" fill-opacity="0.38"/>
</svg>
