<svg width="32" height="32" viewBox="0 0 32 32" fill="none" xmlns="http://www.w3.org/2000/svg">
<path d="M15.9998 29.3307C14.1554 29.3307 12.4221 28.9805 10.7998 28.2801C9.17762 27.5796 7.76651 26.6298 6.56651 25.4307C5.36651 24.2316 4.41673 22.8205 3.71717 21.1974C3.01762 19.5743 2.66739 17.841 2.66651 15.9974C2.66562 14.1538 3.01584 12.4205 3.71717 10.7974C4.41851 9.17428 5.36828 7.76317 6.56651 6.56406C7.76473 5.36495 9.17584 4.41517 10.7998 3.71473C12.4238 3.01428 14.1572 2.66406 15.9998 2.66406C17.8425 2.66406 19.5758 3.01428 21.1998 3.71473C22.8238 4.41517 24.235 5.36495 25.4332 6.56406C26.6314 7.76317 27.5816 9.17428 28.2838 10.7974C28.9861 12.4205 29.3358 14.1538 29.3332 15.9974C29.3305 17.841 28.9803 19.5743 28.2825 21.1974C27.5847 22.8205 26.635 24.2316 25.4332 25.4307C24.2314 26.6298 22.8203 27.5801 21.1998 28.2814C19.5794 28.9827 17.8461 29.3325 15.9998 29.3307Z" fill="#6D6D6D" fill-opacity="0.38"/>
<path d="M12.0693 11.9433C12.4587 12.2593 12.604 12.2353 13.3347 12.1866L20.2227 11.7733C20.3693 11.7733 20.2473 11.6266 20.1987 11.6026L19.0547 10.776C18.8353 10.606 18.5433 10.4106 17.984 10.4593L11.314 10.946C11.0713 10.97 11.0227 11.092 11.1193 11.1893L12.0693 11.9433ZM12.4827 13.5486V20.7953C12.4827 21.1853 12.6773 21.3306 13.116 21.3066L20.6853 20.8686C21.1233 20.8446 21.172 20.5766 21.172 20.26V13.062C21.172 12.746 21.0507 12.5753 20.7827 12.6L12.872 13.062C12.58 13.086 12.4827 13.232 12.4827 13.5486ZM19.956 13.9373C20.004 14.156 19.956 14.3753 19.736 14.4L19.3713 14.4726V19.8226C19.0547 19.9933 18.7627 20.09 18.5193 20.09C18.13 20.09 18.0327 19.9686 17.7407 19.604L15.3547 15.8586V19.4826L16.11 19.6526C16.11 19.6526 16.11 20.09 15.5007 20.09L13.8213 20.1873C13.7727 20.09 13.8213 19.8473 13.992 19.7986L14.43 19.6773V14.886L13.8213 14.8373C13.7727 14.618 13.8947 14.302 14.2353 14.2773L16.0367 14.156L18.5193 17.9506V14.594L17.886 14.5213C17.838 14.2533 18.0327 14.0593 18.276 14.0346L19.956 13.9373ZM10.754 10.2893L17.6913 9.77862C18.5427 9.70529 18.762 9.75462 19.298 10.1433L21.512 11.7C21.8773 11.9673 21.9993 12.04 21.9993 12.332V20.8686C21.9993 21.404 21.8047 21.72 21.1233 21.7686L13.0667 22.2553C12.5553 22.2793 12.312 22.2066 12.044 21.866L10.4133 19.75C10.1213 19.3606 10 19.0693 10 18.728V11.14C10 10.7026 10.194 10.338 10.754 10.2893Z" fill="black"/>
</svg>
