<svg width="70" height="70" viewBox="0 0 70 70" fill="none" xmlns="http://www.w3.org/2000/svg">
<path d="M35 64.1693C30.9653 64.1693 27.1736 63.4032 23.625 61.8709C20.0764 60.3387 16.9896 58.2611 14.3646 55.638C11.7396 53.015 9.66194 49.9282 8.13167 46.3776C6.60139 42.8271 5.83528 39.0354 5.83333 35.0026C5.83139 30.9698 6.5975 27.1782 8.13167 23.6276C9.66583 20.0771 11.7435 16.9902 14.3646 14.3672C16.9857 11.7441 20.0725 9.66649 23.625 8.13427C27.1775 6.60205 30.9692 5.83594 35 5.83594C39.0308 5.83594 42.8225 6.60205 46.375 8.13427C49.9275 9.66649 53.0143 11.7441 55.6354 14.3672C58.2565 16.9902 60.3351 20.0771 61.8713 23.6276C63.4074 27.1782 64.1725 30.9698 64.1667 35.0026C64.1608 39.0354 63.3947 42.8271 61.8683 46.3776C60.3419 49.9282 58.2643 53.015 55.6354 55.638C53.0065 58.2611 49.9197 60.3397 46.375 61.8739C42.8303 63.408 39.0386 64.1732 35 64.1693Z" fill="#FF6F3A"/>
<path d="M36.4125 32.0861L36.046 28.0757L41.0457 27.657C39.4723 26.2086 37.4667 25.2639 35.3067 24.9535C33.1467 24.6432 30.9393 24.9827 28.9901 25.9249C27.0409 26.8672 25.4464 28.3655 24.4275 30.2125C23.4087 32.0595 23.0159 34.1636 23.3035 36.2335C23.5911 38.3034 24.5449 40.2365 26.0329 41.7651C27.5208 43.2938 29.4691 44.3423 31.6081 44.7654C33.747 45.1885 35.9706 44.9653 37.9709 44.1266C39.9713 43.288 41.6493 41.8755 42.7726 40.0847L46.9888 41.0913C45.6166 43.7775 43.3864 45.977 40.6205 47.3718C37.8547 48.7667 34.6965 49.2846 31.6025 48.8508C28.5085 48.417 25.639 47.0538 23.4087 44.9584C21.1784 42.8631 19.7029 40.144 19.1954 37.1942C18.688 34.2444 19.1749 31.2168 20.5857 28.549C21.9966 25.8812 24.2583 23.7113 27.0441 22.3531C29.8298 20.9949 32.9951 20.5187 36.0825 20.9933C39.17 21.4679 42.0196 22.8688 44.2194 24.9934L43.7034 19.3503L47.8986 19L49 31.0332L36.4125 32.0861Z" fill="white"/>
</svg>
