<svg width="32" height="32" viewBox="0 0 32 32" fill="none" xmlns="http://www.w3.org/2000/svg">
<path d="M15.9998 29.3307C14.1554 29.3307 12.4221 28.9805 10.7998 28.2801C9.17762 27.5796 7.76651 26.6298 6.56651 25.4307C5.36651 24.2316 4.41673 22.8205 3.71717 21.1974C3.01762 19.5743 2.66739 17.841 2.66651 15.9974C2.66562 14.1538 3.01584 12.4205 3.71717 10.7974C4.41851 9.17428 5.36828 7.76317 6.56651 6.56406C7.76473 5.36495 9.17584 4.41517 10.7998 3.71473C12.4238 3.01428 14.1572 2.66406 15.9998 2.66406C17.8425 2.66406 19.5758 3.01428 21.1998 3.71473C22.8238 4.41517 24.235 5.36495 25.4332 6.56406C26.6314 7.76317 27.5816 9.17428 28.2838 10.7974C28.9861 12.4205 29.3358 14.1538 29.3332 15.9974C29.3305 17.841 28.9803 19.5743 28.2825 21.1974C27.5847 22.8205 26.635 24.2316 25.4332 25.4307C24.2314 26.6298 22.8203 27.5801 21.1998 28.2814C19.5794 28.9827 17.8461 29.3325 15.9998 29.3307Z" fill="#6D6D6D" fill-opacity="0.38"/>
<path d="M10.6665 20.3682V16.5302C10.6664 16.5131 10.6707 16.4963 10.679 16.4814C10.6872 16.4664 10.6992 16.4538 10.7137 16.4448C10.7282 16.4358 10.7448 16.4306 10.7618 16.4298C10.7789 16.429 10.7959 16.4326 10.8112 16.4402L15.1052 18.5876C15.3829 18.7265 15.6893 18.7988 15.9998 18.7988C16.3104 18.7988 16.6167 18.7265 16.8945 18.5876L21.1878 16.4409C21.2031 16.4331 21.2201 16.4294 21.2372 16.4301C21.2543 16.4308 21.271 16.4359 21.2855 16.4448C21.3001 16.4538 21.3122 16.4664 21.3205 16.4813C21.3288 16.4963 21.3332 16.5131 21.3332 16.5302V20.3682C21.3332 20.7218 21.1927 21.061 20.9426 21.311C20.6926 21.5611 20.3535 21.7016 19.9998 21.7016H11.9998C11.6462 21.7016 11.3071 21.5611 11.057 21.311C10.807 21.061 10.6665 20.7218 10.6665 20.3682Z" fill="black"/>
<path d="M10.6665 13.3333V13.938C10.6665 13.9566 10.6717 13.9747 10.6815 13.9905C10.6913 14.0063 10.7052 14.019 10.7218 14.0273L15.1052 16.2193C15.3829 16.3583 15.6893 16.4306 15.9998 16.4306C16.3104 16.4306 16.6167 16.3583 16.8945 16.2193L21.2778 14.0273C21.2944 14.019 21.3084 14.0063 21.3182 13.9905C21.328 13.9747 21.3331 13.9566 21.3332 13.938V13.3333C21.3332 12.9797 21.1927 12.6406 20.9426 12.3905C20.6926 12.1405 20.3535 12 19.9998 12H11.9998C11.6462 12 11.3071 12.1405 11.057 12.3905C10.807 12.6406 10.6665 12.9797 10.6665 13.3333Z" fill="black"/>
</svg>
