<svg width="32" height="32" viewBox="0 0 32 32" fill="none" xmlns="http://www.w3.org/2000/svg">
<path d="M10 10V22H22V10H10ZM20 20H12V19.3333H20V20ZM20 18.6667H12V18H20V18.6667ZM20 16H12V12H20V16Z" fill="black"/>
<path d="M15.9998 29.3307C14.1554 29.3307 12.4221 28.9805 10.7998 28.2801C9.17762 27.5796 7.76651 26.6298 6.56651 25.4307C5.36651 24.2316 4.41673 22.8205 3.71717 21.1974C3.01762 19.5743 2.66739 17.841 2.66651 15.9974C2.66562 14.1538 3.01584 12.4205 3.71717 10.7974C4.41851 9.17428 5.36828 7.76317 6.56651 6.56406C7.76473 5.36495 9.17584 4.41517 10.7998 3.71473C12.4238 3.01428 14.1572 2.66406 15.9998 2.66406C17.8425 2.66406 19.5758 3.01428 21.1998 3.71473C22.8238 4.41517 24.235 5.36495 25.4332 6.56406C26.6314 7.76317 27.5816 9.17428 28.2838 10.7974C28.9861 12.4205 29.3358 14.1538 29.3332 15.9974C29.3305 17.841 28.9803 19.5743 28.2825 21.1974C27.5847 22.8205 26.635 24.2316 25.4332 25.4307C24.2314 26.6298 22.8203 27.5801 21.1998 28.2814C19.5794 28.9827 17.8461 29.3325 15.9998 29.3307Z" fill="#6D6D6D" fill-opacity="0.38"/>
</svg>
