<svg width="32" height="32" viewBox="0 0 32 32" fill="none" xmlns="http://www.w3.org/2000/svg">
<path d="M15.9998 29.3307C14.1554 29.3307 12.4221 28.9805 10.7998 28.2801C9.17762 27.5796 7.76651 26.6298 6.56651 25.4307C5.36651 24.2316 4.41673 22.8205 3.71717 21.1974C3.01762 19.5743 2.66739 17.841 2.66651 15.9974C2.66562 14.1538 3.01584 12.4205 3.71717 10.7974C4.41851 9.17428 5.36828 7.76317 6.56651 6.56406C7.76473 5.36495 9.17584 4.41517 10.7998 3.71473C12.4238 3.01428 14.1572 2.66406 15.9998 2.66406C17.8425 2.66406 19.5758 3.01428 21.1998 3.71473C22.8238 4.41517 24.235 5.36495 25.4332 6.56406C26.6314 7.76317 27.5816 9.17428 28.2838 10.7974C28.9861 12.4205 29.3358 14.1538 29.3332 15.9974C29.3305 17.841 28.9803 19.5743 28.2825 21.1974C27.5847 22.8205 26.635 24.2316 25.4332 25.4307C24.2314 26.6298 22.8203 27.5801 21.1998 28.2814C19.5794 28.9827 17.8461 29.3325 15.9998 29.3307Z" fill="#6D6D6D" fill-opacity="0.38"/>
<path d="M13.48 10H18.52C20.44 10 22 11.56 22 13.48V18.52C22 19.443 21.6334 20.3281 20.9807 20.9807C20.3281 21.6334 19.443 22 18.52 22H13.48C11.56 22 10 20.44 10 18.52V13.48C10 12.557 10.3666 11.6719 11.0193 11.0193C11.6719 10.3666 12.557 10 13.48 10ZM13.36 11.2C12.7871 11.2 12.2377 11.4276 11.8326 11.8326C11.4276 12.2377 11.2 12.7871 11.2 13.36V18.64C11.2 19.834 12.166 20.8 13.36 20.8H18.64C19.2129 20.8 19.7623 20.5724 20.1674 20.1674C20.5724 19.7623 20.8 19.2129 20.8 18.64V13.36C20.8 12.166 19.834 11.2 18.64 11.2H13.36ZM19.15 12.1C19.3489 12.1 19.5397 12.179 19.6803 12.3197C19.821 12.4603 19.9 12.6511 19.9 12.85C19.9 13.0489 19.821 13.2397 19.6803 13.3803C19.5397 13.521 19.3489 13.6 19.15 13.6C18.9511 13.6 18.7603 13.521 18.6197 13.3803C18.479 13.2397 18.4 13.0489 18.4 12.85C18.4 12.6511 18.479 12.4603 18.6197 12.3197C18.7603 12.179 18.9511 12.1 19.15 12.1ZM16 13C16.7956 13 17.5587 13.3161 18.1213 13.8787C18.6839 14.4413 19 15.2044 19 16C19 16.7956 18.6839 17.5587 18.1213 18.1213C17.5587 18.6839 16.7956 19 16 19C15.2044 19 14.4413 18.6839 13.8787 18.1213C13.3161 17.5587 13 16.7956 13 16C13 15.2044 13.3161 14.4413 13.8787 13.8787C14.4413 13.3161 15.2044 13 16 13ZM16 14.2C15.5226 14.2 15.0648 14.3896 14.7272 14.7272C14.3896 15.0648 14.2 15.5226 14.2 16C14.2 16.4774 14.3896 16.9352 14.7272 17.2728C15.0648 17.6104 15.5226 17.8 16 17.8C16.4774 17.8 16.9352 17.6104 17.2728 17.2728C17.6104 16.9352 17.8 16.4774 17.8 16C17.8 15.5226 17.6104 15.0648 17.2728 14.7272C16.9352 14.3896 16.4774 14.2 16 14.2Z" fill="black"/>
</svg>
